<svg width="1337" height="296" viewBox="0 0 1337 296" fill="none" xmlns="http://www.w3.org/2000/svg">
<g clip-path="url(#clip0_1032_2429)">
<path d="M174.765 39.2576V0.243652H26.8831V147.383H69.8266V39.2576H174.765Z" fill="white"/>
<path d="M296.981 0.243652L-0.000244141 295.757H56.2608L353.018 0.478304L296.981 0.243652Z" fill="#3C64B1"/>
<path d="M178.774 256.125V295.139H326.644V148H283.713V256.125H178.774Z" fill="white"/>
</g>
<path d="M471.599 23.1521H456.782V61.579H471.969C479.131 61.579 485.058 60.1627 489.75 57.3299C494.442 54.374 496.788 49.5706 496.788 42.9198C496.788 35.8995 494.565 30.8498 490.12 27.7707C485.675 24.6916 479.501 23.1521 471.599 23.1521ZM506.049 128.826L479.378 80.7925C478.02 80.9157 476.6 81.0389 475.118 81.162C473.636 81.162 472.154 81.162 470.673 81.162H456.782V128.826H432.889V3.19958H472.34C486.046 3.19958 497.776 6.34025 507.531 12.6216C517.285 18.9029 522.162 28.6328 522.162 41.8113C522.162 49.5706 520.125 56.283 516.05 61.9485C512.099 67.4909 506.975 71.8016 500.678 74.8807L531.608 128.826H506.049Z" fill="white"/>
<path d="M674.215 128.826H586.053V3.19958H661.25L664.954 22.0436H609.946V55.8519H643.655L647.544 74.8807H609.946V110.167H670.326L674.215 128.826Z" fill="white"/>
<path d="M730.535 101.114C734.363 103.085 739.24 105.056 745.167 107.026C751.094 108.997 756.712 109.982 762.021 109.982C769.554 109.982 775.172 108.812 778.876 106.472C782.704 104.132 784.618 100.745 784.618 96.3111C784.618 92.1236 782.086 88.4287 777.024 85.2264C772.085 81.901 766.59 78.6987 760.54 75.6197C751.649 71.0626 743.13 65.705 734.98 59.5468C726.831 53.3887 722.818 44.8288 722.941 33.8673C723.065 24.3837 726.831 16.4396 734.239 10.0351C741.771 3.50748 752.452 0.243652 766.281 0.243652C772.579 0.243652 778.876 1.22896 785.173 3.19958C791.471 5.17019 797.027 7.32555 801.843 9.66565L793.878 28.8792C790.051 27.0317 785.914 25.3074 781.469 23.7063C777.024 21.982 772.085 21.1199 766.652 21.1199C761.342 21.1199 756.835 22.1667 753.131 24.2605C749.55 26.3543 747.76 29.5566 747.76 33.8673C747.76 38.5475 750.106 42.4271 754.798 45.5062C759.49 48.5853 765.047 51.8491 771.467 55.2977C780.481 59.8547 789.063 65.2124 797.212 71.3705C805.485 77.5287 809.56 85.9654 809.436 96.6806C809.313 106.657 805.238 114.909 797.212 121.436C789.186 127.964 777.58 131.228 762.392 131.228C757.082 131.228 750.229 130.058 741.833 127.718C733.56 125.378 728.004 122.976 725.164 120.513L730.535 101.114Z" fill="white"/>
<path d="M891.442 3.19958V55.8519L938.672 0.428395L956.452 14.0995L919.039 57.3299L971.64 128.826H941.82L903.296 75.6197L891.442 89.4755V128.826H867.364V3.19958H891.442Z" fill="white"/>
<path d="M1048.09 3.19958V128.826H1024.2V3.19958H1048.09Z" fill="white"/>
<path d="M1199.39 128.826H1116.23V3.19958H1140.12V110.167H1195.69L1199.39 128.826Z" fill="white"/>
<path d="M1337 128.826H1253.84V3.19958H1277.73V110.167H1333.3L1337 128.826Z" fill="white"/>
<path d="M451.98 208.079L434.352 254.785H470.154L451.98 208.079ZM456.352 197.279L491.88 287.722L483.545 289.072L472.613 261.534H432.029L421.781 289.072H413.719L447.47 197.279H456.352Z" fill="white"/>
<path d="M572.089 258.024L542.847 215.233V289.072H534.375V197.279H539.157L573.182 245.605L606.66 197.279H612.263V289.072H603.654V214.558L574.822 257.484L572.089 258.024Z" fill="white"/>
<path d="M668.325 289.072V197.279H717.517L718.2 203.354H676.797V238.991H704.126L704.809 245.065H676.797V282.322H720.523L721.343 289.072H668.325Z" fill="white"/>
<path d="M791.635 204.434H775.785V243.581H790.132C797.056 243.581 803.114 242.186 808.306 239.396C813.499 236.606 816.14 231.387 816.232 223.737C816.232 215.908 813.909 210.733 809.263 208.214C804.617 205.694 798.741 204.434 791.635 204.434ZM822.654 289.072L800.654 249.79C798.923 249.97 797.147 250.15 795.325 250.33C793.503 250.42 791.681 250.465 789.859 250.465H775.785V289.072H767.312V197.279H791.362C801.018 197.279 808.989 199.259 815.275 203.219C821.652 207.089 824.84 213.838 824.84 223.467C824.749 229.857 823.155 234.986 820.058 238.856C816.96 242.726 812.998 245.605 808.169 247.495L832.219 289.072H822.654Z" fill="white"/>
<path d="M881.113 289.072V197.279H889.585V289.072H881.113Z" fill="white"/>
<path d="M1001.97 206.594C999.146 205.424 996.368 204.479 993.635 203.759C990.902 203.039 987.076 202.679 982.156 202.679C972.409 202.769 964.666 206.684 958.927 214.423C953.188 222.072 950.318 231.792 950.318 243.581C950.318 254.56 952.778 263.964 957.697 271.793C962.616 279.623 970.359 283.537 980.927 283.537C985.846 283.537 989.854 283.132 992.951 282.322C996.14 281.512 998.964 280.568 1001.42 279.488L1004.7 285.967C1002.15 287.317 998.554 288.487 993.908 289.477C989.353 290.467 985.117 290.962 981.2 290.962C966.989 290.962 956.786 286.237 950.591 276.788C944.397 267.249 941.299 256.225 941.299 243.716C941.299 230.307 944.716 218.923 951.548 209.563C958.471 200.114 968.629 195.39 982.02 195.39C984.844 195.39 988.67 195.795 993.498 196.605C998.417 197.414 1002.15 198.674 1004.7 200.384L1001.97 206.594Z" fill="white"/>
<path d="M1079.67 208.079L1062.04 254.785H1097.84L1079.67 208.079ZM1084.04 197.279L1119.57 287.722L1111.23 289.072L1100.3 261.534H1059.72L1049.47 289.072H1041.41L1075.16 197.279H1084.04Z" fill="white"/>
<path d="M1162.06 289.072V197.279H1167.67L1216.45 263.694L1221.09 271.658V197.279H1229.7V289.072H1224.1L1172.45 217.393L1170.53 213.478V289.072H1162.06Z" fill="white"/>
<path d="M1282.05 278.678C1284.42 279.848 1287.66 281.017 1291.76 282.187C1295.86 283.357 1300.18 283.942 1304.74 283.942C1312.57 283.942 1318.54 282.367 1322.64 279.218C1326.83 276.068 1328.92 272.153 1328.92 267.474C1328.92 256.944 1320.5 249.475 1303.64 245.065C1286.79 240.566 1278.41 231.387 1278.5 217.528C1278.59 211.228 1281.23 205.919 1286.43 201.599C1291.71 197.279 1298.73 195.12 1307.47 195.12C1312.03 195.12 1316.31 195.66 1320.32 196.739C1324.32 197.819 1327.69 199.034 1330.43 200.384L1327.42 206.729C1325.05 205.649 1322.37 204.614 1319.36 203.624C1316.35 202.634 1312.48 202.139 1307.74 202.139C1301.19 202.139 1295.99 203.534 1292.17 206.324C1288.34 209.113 1286.43 212.848 1286.43 217.528C1286.43 228.237 1294.95 235.886 1311.98 240.476C1329.02 245.065 1337.35 254.065 1336.99 267.474C1336.9 274.223 1334.03 279.803 1328.38 284.212C1322.82 288.622 1314.99 290.827 1304.87 290.827C1300.96 290.827 1296.22 290.242 1290.66 289.072C1285.11 287.812 1281.55 286.507 1280.01 285.157L1282.05 278.678Z" fill="white"/>
<defs>
<clipPath id="clip0_1032_2429">
<rect width="353.018" height="295.513" fill="white" transform="translate(-0.000244141 0.243652)"/>
</clipPath>
</defs>
</svg>
