<svg width="1337" height="296" viewBox="0 0 1337 296" fill="none" xmlns="http://www.w3.org/2000/svg">
<g clip-path="url(#clip0_1032_2409)">
<path d="M174.765 39.2571V0.243164H26.8828V147.382H69.8263V39.2571H174.765Z" fill="#121928"/>
<path d="M296.98 0.243164L-0.000488281 295.756H56.2606L353.018 0.477816L296.98 0.243164Z" fill="#3C64B1"/>
<path d="M178.774 256.125V295.139H326.644V148H283.713V256.125H178.774Z" fill="#121928"/>
</g>
<path d="M471.599 23.1516H456.781V61.5785H471.969C479.131 61.5785 485.057 60.1622 489.75 57.3294C494.442 54.3735 496.788 49.5701 496.788 42.9193C496.788 35.899 494.565 30.8493 490.12 27.7702C485.675 24.6911 479.501 23.1516 471.599 23.1516ZM506.048 128.826L479.378 80.792C478.019 80.9152 476.599 81.0384 475.118 81.1615C473.636 81.1615 472.154 81.1615 470.672 81.1615H456.781V128.826H432.889V3.19909H472.339C486.045 3.19909 497.776 6.33976 507.53 12.6211C517.285 18.9024 522.162 28.6323 522.162 41.8108C522.162 49.5701 520.125 56.2825 516.05 61.948C512.099 67.4904 506.975 71.8011 500.677 74.8802L531.608 128.826H506.048Z" fill="#121928"/>
<path d="M674.215 128.826H586.053V3.19909H661.25L664.954 22.0431H609.945V55.8515H643.654L647.544 74.8802H609.945V110.167H670.325L674.215 128.826Z" fill="#121928"/>
<path d="M730.535 101.114C734.362 103.085 739.24 105.055 745.166 107.026C751.093 108.996 756.711 109.982 762.021 109.982C769.553 109.982 775.171 108.812 778.876 106.472C782.703 104.132 784.617 100.745 784.617 96.3106C784.617 92.1231 782.086 88.4282 777.023 85.2259C772.084 81.9005 766.59 78.6983 760.539 75.6192C751.649 71.0621 743.129 65.7045 734.98 59.5463C726.83 53.3882 722.817 44.8283 722.941 33.8668C723.064 24.3832 726.83 16.4392 734.239 10.0347C741.771 3.507 752.452 0.243164 766.281 0.243164C772.578 0.243164 778.876 1.22847 785.173 3.19909C791.47 5.1697 797.027 7.32506 801.842 9.66516L793.878 28.8787C790.05 27.0312 785.914 25.3069 781.469 23.7058C777.023 21.9815 772.084 21.1194 766.651 21.1194C761.342 21.1194 756.835 22.1663 753.131 24.26C749.55 26.3538 747.759 29.5561 747.759 33.8668C747.759 38.547 750.105 42.4266 754.798 45.5057C759.49 48.5848 765.046 51.8486 771.467 55.2972C780.481 59.8543 789.062 65.2119 797.212 71.37C805.485 77.5282 809.559 85.9649 809.436 96.6801C809.312 106.656 805.238 114.908 797.212 121.436C789.186 127.964 777.579 131.227 762.391 131.227C757.082 131.227 750.229 130.057 741.833 127.717C733.56 125.377 728.003 122.976 725.163 120.512L730.535 101.114Z" fill="#121928"/>
<path d="M891.441 3.19909V55.8515L938.671 0.427907L956.452 14.099L919.038 57.3294L971.639 128.826H941.82L903.295 75.6192L891.441 89.4751V128.826H867.363V3.19909H891.441Z" fill="#121928"/>
<path d="M1048.09 3.19909V128.826H1024.2V3.19909H1048.09Z" fill="#121928"/>
<path d="M1199.39 128.826H1116.23V3.19909H1140.12V110.167H1195.69L1199.39 128.826Z" fill="#121928"/>
<path d="M1337 128.826H1253.84V3.19909H1277.73V110.167H1333.3L1337 128.826Z" fill="#121928"/>
<path d="M451.983 208.078L434.355 254.784H470.156L451.983 208.078ZM456.355 197.279L491.883 287.721L483.548 289.071L472.616 261.534H432.032L421.784 289.071H413.722L447.473 197.279H456.355Z" fill="#121928"/>
<path d="M572.092 258.024L542.85 215.232V289.071H534.378V197.279H539.16L573.185 245.605L606.663 197.279H612.266V289.071H603.657V214.558L574.825 257.484L572.092 258.024Z" fill="#121928"/>
<path d="M668.328 289.071V197.279H717.52L718.203 203.353H676.8V238.99H704.129L704.812 245.065H676.8V282.322H720.526L721.346 289.071H668.328Z" fill="#121928"/>
<path d="M791.638 204.433H775.787V243.58H790.135C797.059 243.58 803.117 242.185 808.309 239.395C813.502 236.606 816.143 231.386 816.234 223.737C816.234 215.907 813.912 210.733 809.266 208.213C804.62 205.693 798.744 204.433 791.638 204.433ZM822.657 289.071L800.657 249.79C798.926 249.97 797.15 250.15 795.328 250.33C793.506 250.42 791.684 250.465 789.862 250.465H775.787V289.071H767.315V197.279H791.365C801.021 197.279 808.992 199.259 815.278 203.218C821.655 207.088 824.843 213.838 824.843 223.467C824.752 229.856 823.158 234.986 820.061 238.855C816.963 242.725 813.001 245.605 808.172 247.495L832.222 289.071H822.657Z" fill="#121928"/>
<path d="M881.115 289.071V197.279H889.587V289.071H881.115Z" fill="#121928"/>
<path d="M1001.97 206.593C999.149 205.423 996.371 204.478 993.638 203.758C990.905 203.038 987.079 202.679 982.159 202.679C972.412 202.768 964.669 206.683 958.93 214.423C953.191 222.072 950.321 231.791 950.321 243.58C950.321 254.559 952.781 263.963 957.7 271.793C962.619 279.622 970.362 283.537 980.93 283.537C985.849 283.537 989.857 283.132 992.954 282.322C996.143 281.512 998.967 280.567 1001.43 279.487L1004.71 285.967C1002.16 287.316 998.557 288.486 993.911 289.476C989.356 290.466 985.12 290.961 981.203 290.961C966.992 290.961 956.789 286.237 950.594 276.787C944.4 267.248 941.302 256.224 941.302 243.715C941.302 230.306 944.719 218.922 951.551 209.563C958.474 200.114 968.632 195.389 982.023 195.389C984.847 195.389 988.673 195.794 993.501 196.604C998.42 197.414 1002.16 198.674 1004.71 200.384L1001.97 206.593Z" fill="#121928"/>
<path d="M1079.67 208.078L1062.04 254.784H1097.84L1079.67 208.078ZM1084.04 197.279L1119.57 287.721L1111.24 289.071L1100.3 261.534H1059.72L1049.47 289.071H1041.41L1075.16 197.279H1084.04Z" fill="#121928"/>
<path d="M1162.07 289.071V197.279H1167.67L1216.45 263.693L1221.1 271.658V197.279H1229.71V289.071H1224.1L1172.45 217.392L1170.54 213.478V289.071H1162.07Z" fill="#121928"/>
<path d="M1282.06 278.677C1284.43 279.847 1287.66 281.017 1291.76 282.187C1295.86 283.357 1300.19 283.942 1304.74 283.942C1312.58 283.942 1318.54 282.367 1322.64 279.217C1326.83 276.067 1328.93 272.153 1328.93 267.473C1328.93 256.944 1320.5 249.475 1303.65 245.065C1286.79 240.565 1278.41 231.386 1278.5 217.527C1278.6 211.228 1281.24 205.918 1286.43 201.599C1291.71 197.279 1298.73 195.119 1307.47 195.119C1312.03 195.119 1316.31 195.659 1320.32 196.739C1324.33 197.819 1327.7 199.034 1330.43 200.384L1327.42 206.728C1325.06 205.648 1322.37 204.613 1319.36 203.623C1316.36 202.634 1312.48 202.139 1307.75 202.139C1301.19 202.139 1296 203.533 1292.17 206.323C1288.34 209.113 1286.43 212.848 1286.43 217.527C1286.43 228.236 1294.95 235.886 1311.98 240.475C1329.02 245.065 1337.35 254.064 1336.99 267.473C1336.9 274.223 1334.03 279.802 1328.38 284.212C1322.82 288.621 1314.99 290.826 1304.88 290.826C1300.96 290.826 1296.22 290.241 1290.67 289.071C1285.11 287.811 1281.56 286.507 1280.01 285.157L1282.06 278.677Z" fill="#121928"/>
<defs>
<clipPath id="clip0_1032_2409">
<rect width="353.018" height="295.513" fill="white" transform="translate(-0.000488281 0.243164)"/>
</clipPath>
</defs>
</svg>
